<svg width="1280" height="1024" viewBox="0 0 1280 1024" fill="none" xmlns="http://www.w3.org/2000/svg">
<path d="M1280 0H0V1024H1280V0Z" fill="#1E1E1E"/>
<path fill-rule="evenodd" clip-rule="evenodd" d="M366.172 590.429C352.219 594.145 336.881 594.945 325.062 596.77C286.332 602.75 286.536 658.858 341.816 656.973C350.519 656.676 358.644 655.539 366.172 653.671C441.782 634.904 457.314 542.434 396.105 488.063C422.102 480.677 441.151 456.782 441.201 428.429C455.509 427.662 471.375 419.83 476.253 394.746C443.151 402.053 419.272 366.214 379.101 366.214C344.803 366.214 316.998 394.019 316.998 428.317C316.998 437.4 318.948 446.028 322.454 453.805C254.859 445.102 179.407 496.173 177.267 567.582C175.997 609.926 199.977 651.473 244.907 656.827C246.061 656.965 247.229 657.078 248.41 657.167C294.422 660.64 304.259 607.793 265.409 598.299C258.172 596.53 251.279 595.12 244.907 593.271V549.536H231.762C229.534 549.536 227.634 548.241 226.819 546.167C226.003 544.094 226.512 541.852 228.143 540.335L301.92 471.673C303.964 469.771 307.114 469.771 309.158 471.673L382.936 540.335C384.567 541.852 385.076 544.094 384.261 546.167C383.446 548.241 381.545 549.536 379.317 549.536H366.172V590.429ZM308.387 519.206C319.103 520.613 327.445 529.842 327.445 540.925V547.958H308.387V519.206ZM327.445 553.653V575.422H308.387V553.653H327.445ZM302.693 575.422H283.635V553.653H302.693V575.422ZM283.635 547.958V540.925C283.635 529.842 291.977 520.613 302.693 519.206V547.958H283.635ZM343.777 440.137C343.505 438.108 344.929 436.241 346.958 435.969C348.988 435.696 350.855 437.12 351.128 439.15C352.195 447.01 358.425 453.514 366.006 457.266C375.465 461.947 387.027 462.55 397.176 458.217C399.062 457.415 401.241 458.293 402.043 460.178C402.845 462.064 401.967 464.242 400.082 465.045C387.935 470.232 374.066 469.532 362.723 463.919C352.92 459.067 345.208 450.565 343.777 440.137Z" fill="#1E1E1E"/>
<path d="M487.534 611.421H541.749V595.245H507.457V528.984H487.534V611.421ZM561.115 611.421H580.806V549.598H561.115V611.421ZM570.989 542.394C576.58 542.394 581.095 538.168 581.095 532.98C581.095 527.774 576.58 523.586 570.989 523.586C565.418 523.586 560.884 527.774 560.884 532.98C560.884 538.168 565.418 542.394 570.989 542.394ZM656.327 568.464C655.29 556.246 645.261 548.792 628.509 548.792C611.775 548.792 601.094 556.073 601.19 568.464C601.094 577.974 607.184 584.083 619.537 586.389L630.315 588.444C635.444 589.443 637.769 591.057 637.845 593.785C637.769 596.897 634.311 598.934 629.277 598.934C623.687 598.934 619.902 596.532 619.057 592.018L599.615 592.498C601.017 604.736 611.526 612.593 629.2 612.593C645.741 612.593 657.768 604.332 657.864 591.614C657.768 582.604 651.812 577.244 639.498 574.881L627.586 572.614C622.361 571.576 620.67 569.713 620.709 567.35C620.67 564.199 624.321 562.278 628.874 562.278C634.061 562.278 637.692 565.045 638.249 568.964L656.327 568.464ZM711.483 549.598H700.341V534.786H680.649V549.598H672.484V564.084H680.649V594.15C680.534 606.676 688.66 612.958 702.55 612.305C707.295 612.074 710.715 611.095 712.617 610.537L709.639 596.321C708.794 596.532 706.815 596.936 705.316 596.936C702.147 596.936 700.341 595.649 700.341 591.979V564.084H711.483V549.598ZM730.618 611.421H750.291V549.598H730.618V611.421ZM740.474 542.394C746.064 542.394 750.579 538.168 750.579 532.98C750.579 527.774 746.064 523.586 740.474 523.586C734.921 523.586 730.368 527.774 730.368 532.98C730.368 538.168 734.921 542.394 740.474 542.394ZM791.519 576.168C791.557 569.117 795.668 564.929 801.912 564.929C808.156 564.929 811.844 569.041 811.806 575.88V611.421H831.498V572.018C831.536 558.09 823.045 548.792 810.039 548.792C800.894 548.792 793.978 553.422 791.25 560.953H790.558V549.598H771.846V611.421H791.519V576.168ZM881.621 635.378C900.256 635.378 912.974 626.886 912.974 611.671V549.598H893.378V560.184H892.802C890.439 554.497 885.04 548.792 875.3 548.792C862.371 548.792 850.671 558.724 850.671 580.433C850.671 601.431 861.814 610.576 875.377 610.576C884.483 610.576 890.554 606.349 892.898 600.624H893.57V611.498C893.57 618.914 888.748 621.719 882.139 621.719C875.819 621.719 872.034 619.317 870.997 616.013L852.362 617.05C853.802 627.367 863.985 635.378 881.621 635.378ZM882.216 596.244C874.935 596.244 870.862 590.327 870.862 580.433C870.862 570.558 874.897 564.161 882.216 564.161C889.421 564.161 893.609 570.405 893.609 580.433C893.609 590.365 889.382 596.244 882.216 596.244ZM934.568 611.421H954.49V585.812H968.015C986.881 585.812 998.677 574.631 998.677 557.533C998.677 540.569 987.13 528.984 968.611 528.984H934.568V611.421ZM954.49 570.116V545.045H964.307C973.24 545.045 978.024 549.867 978.024 557.533C978.024 565.141 973.24 570.116 964.307 570.116H954.49ZM1032.78 612.459C1041.4 612.459 1047.36 609.135 1050.74 602.814H1051.22V611.421H1069.74V569.406C1069.74 556.323 1058.1 548.792 1042.36 548.792C1025.75 548.792 1016.33 557.168 1014.76 568.426L1032.91 569.079C1033.76 565.141 1037 562.72 1042.21 562.72C1047.03 562.72 1050.09 565.045 1050.09 569.194V569.406C1050.09 573.19 1045.99 573.978 1035.45 574.919C1022.92 575.957 1012.45 580.587 1012.45 594.265C1012.45 606.503 1020.94 612.459 1032.78 612.459ZM1038.87 599.587C1034.31 599.587 1031.09 597.416 1031.09 593.305C1031.09 589.328 1034.24 586.907 1039.83 586.062C1043.5 585.543 1047.99 584.736 1050.22 583.564V589.443C1050.22 595.476 1045.15 599.587 1038.87 599.587ZM1110.49 528.984H1090.8V611.421H1110.49V528.984Z" fill="#1E1E1E"/>
</svg>
