<svg width="100" height="100" viewBox="0 0 100 100" fill="none" xmlns="http://www.w3.org/2000/svg">
<path d="M94.363 39.473C98.0075 33.9535 94.6442 24.875 88.3005 23.035C89.2614 17.4725 85.0075 12.172 79.4255 11.773C78.1638 5.85111 70.7028 2.26131 65.3945 5.54251C64.4882 2.35501 61.5273 -0.000487532 58.0742 -0.000487532H58.0507L57.9335 0.00341867C54.5233 0.0776377 51.7499 2.91362 51.7499 6.32372V28.7107C51.1601 28.6599 50.5663 28.6365 49.9647 28.6365C49.3905 28.6365 48.8202 28.6599 48.2538 28.7068V6.31981C48.2538 2.90961 45.4804 0.0776117 42.0702 -0.000488332L41.9531 -0.00439453C41.9413 -0.000488331 41.9335 -0.000488332 41.9257 -0.000488332C38.4687 -0.000488332 35.5116 2.35501 34.6054 5.54251C29.2968 2.26521 21.8354 5.8511 20.5744 11.773C14.9924 12.1675 10.7385 17.4683 11.6994 23.035C5.35561 24.8709 1.99631 33.953 5.63691 39.473C-1.81229 44.0394 -1.89039 55.762 5.48457 60.43C2.09787 66.3636 5.29707 74.477 11.7815 76.532C10.5159 82.2 14.8284 87.837 20.5745 88.227C21.8362 94.1489 29.2972 97.7387 34.6055 94.4575C35.5117 97.645 38.4727 100.001 41.9258 100.001C45.4141 100.001 48.25 97.1646 48.25 93.6802L48.2539 71.3012C48.8203 71.3442 49.3906 71.3715 49.9648 71.3715C50.5663 71.3715 51.1601 71.3442 51.75 71.2973V93.6843C51.75 97.1687 54.5859 100.005 58.0742 100.005C61.5312 100.005 64.4883 97.6491 65.3945 94.4616C70.7031 97.7389 78.1675 94.153 79.4255 88.2311C85.1716 87.8366 89.4805 82.1999 88.2185 76.5361C94.7029 74.4814 97.906 66.3681 94.5154 60.4341C101.89 55.7583 101.812 44.039 94.363 39.473ZM67.175 19C67.175 20.4141 66.0227 21.5625 64.6086 21.5625C63.1945 21.5625 62.0422 20.4141 62.0422 19C62.0422 17.5859 63.1945 16.4375 64.6086 16.4375C66.0227 16.4375 67.175 17.5859 67.175 19ZM35.39 16.4375C36.8041 16.4375 37.9564 17.5859 37.9564 19C37.9564 20.4141 36.8041 21.5625 35.39 21.5625C33.9759 21.5625 32.8236 20.4141 32.8236 19C32.8236 17.5859 33.9759 16.4375 35.39 16.4375ZM32.8236 80.9995C32.8236 79.5854 33.9759 78.437 35.39 78.437C36.8041 78.437 37.9564 79.5854 37.9564 80.9995C37.9564 82.4136 36.8041 83.562 35.39 83.562C33.9759 83.562 32.8236 82.4136 32.8236 80.9995ZM46.1126 93.6795C46.1126 95.9881 44.2337 97.8631 41.9251 97.8631C38.9681 97.8631 36.5149 95.4608 36.4563 92.5115L36.4602 85.5779C38.5422 85.0935 40.0969 83.2263 40.0969 80.9998C40.0969 78.406 37.9875 76.3006 35.3938 76.3006C32.8001 76.3006 30.6907 78.41 30.6907 80.9998C30.6907 83.2225 32.2454 85.0896 34.3274 85.5779V92.0467C30.0891 95.6444 23.1164 92.3709 22.5264 87.0389C22.4522 86.5116 21.999 86.1209 21.4678 86.1209C16.6045 86.2381 12.7803 81.5701 13.9014 76.867H23.0616C23.6514 76.867 24.1319 76.3905 24.1319 75.7967V69.8475C26.2139 69.3632 27.7686 67.4959 27.7686 65.2694C27.7686 62.6756 25.6592 60.5702 23.0655 60.5702C20.4718 60.5702 18.3624 62.6796 18.3624 65.2694C18.3624 67.4921 19.9171 69.3592 21.9991 69.8475V74.7303H13.2218C7.14368 73.3514 4.22568 65.7303 7.83118 60.6753C8.18665 60.1793 8.00696 59.4253 7.4679 59.1401C4.3898 57.4253 2.3937 54.3081 2.1046 50.8628H10.6319C11.1163 52.9409 12.9874 54.4956 15.2139 54.4956C17.8077 54.4956 19.917 52.3862 19.917 49.7964C19.917 47.2026 17.8076 45.0972 15.2139 45.0972C12.9873 45.0972 11.1201 46.6519 10.6319 48.73H2.1436C2.53032 45.3745 4.6709 42.3238 7.6709 40.7456C8.25293 40.4566 8.42481 39.6362 8.01074 39.1401C4.12014 34.6049 7.2373 25.9491 13.0927 24.8671H21.9911V29.7499C19.9091 30.2343 18.3544 32.1015 18.3544 34.328C18.3544 36.9218 20.4638 39.0272 23.0575 39.0272C25.6512 39.0272 27.7606 36.9178 27.7606 34.328C27.7606 32.1053 26.2059 30.2382 24.1239 29.7499V23.8007C24.1239 23.2109 23.6435 22.7304 23.0536 22.7304H13.8192C12.9872 18.1288 16.7489 13.7851 21.4598 13.8827C21.9911 13.8827 22.4442 13.4921 22.5184 12.9648C23.1044 7.63277 30.0809 4.35927 34.3194 7.95697V14.4218C32.2374 14.9062 30.6827 16.7734 30.6827 18.9999C30.6827 21.5937 32.7921 23.6991 35.3858 23.6991C37.9795 23.6991 40.0889 21.5897 40.0889 18.9999C40.0889 16.7772 38.5342 14.9101 36.4522 14.4218L36.46 7.48817C36.5186 4.54287 38.9639 2.14437 41.917 2.13657L42.0225 2.14048C44.2803 2.19126 46.1163 4.06628 46.1163 6.32408V28.9801C36.1554 30.7965 28.5813 39.5311 28.5813 50.0001C28.5813 60.4691 36.1555 69.2031 46.1163 71.0201L46.1126 93.6795ZM20.4916 65.2735C20.4916 63.8594 21.6439 62.711 23.058 62.711C24.4721 62.711 25.6244 63.8594 25.6244 65.2735C25.6244 66.6876 24.4721 67.836 23.058 67.836C21.6439 67.836 20.4916 66.6876 20.4916 65.2735ZM12.6478 49.7965C12.6478 48.3824 13.8001 47.234 15.2142 47.234C16.6283 47.234 17.7806 48.3824 17.7806 49.7965C17.7806 51.2106 16.6283 52.359 15.2142 52.359C13.8001 52.3629 12.6478 51.2106 12.6478 49.7965ZM23.0578 31.7615C24.4719 31.7615 25.6242 32.9099 25.6242 34.324C25.6242 35.7381 24.4719 36.8865 23.0578 36.8865C21.6437 36.8865 20.4914 35.7381 20.4914 34.324C20.4914 32.9099 21.6437 31.7615 23.0578 31.7615ZM30.718 49.9995C30.718 39.3945 39.3508 30.7695 49.964 30.7695C60.577 30.7695 69.21 39.3945 69.21 49.9995C69.21 60.6045 60.5772 69.2295 49.964 69.2295C39.351 69.2295 30.718 60.6045 30.718 49.9995ZM64.609 83.5615C63.1949 83.5615 62.0426 82.4131 62.0426 80.999C62.0426 79.5849 63.1949 78.4365 64.609 78.4365C66.0231 78.4365 67.1754 79.5849 67.1754 80.999C67.1754 82.4131 66.0231 83.5615 64.609 83.5615ZM92.531 59.1435C91.9919 59.4287 91.8122 60.1826 92.1677 60.6787C95.7732 65.7334 92.8552 73.3547 86.7771 74.7337L78.0115 74.7298V69.847C80.0935 69.3626 81.6482 67.4954 81.6482 65.2689C81.6482 62.6751 79.5388 60.5697 76.9451 60.5697C74.3514 60.5697 72.242 62.6791 72.242 65.2689C72.242 67.4916 73.7967 69.3587 75.8787 69.847V75.7962C75.8787 76.3861 76.3592 76.8665 76.949 76.8665H86.1092C87.2342 81.5657 83.4061 86.2376 78.5428 86.1204C78.0115 86.1204 77.5584 86.511 77.4842 87.0384C76.8944 92.3704 69.9217 95.6439 65.6832 92.0462L65.6793 85.5774C67.7613 85.093 69.316 83.2258 69.316 80.9993C69.316 78.4055 67.2066 76.3001 64.6129 76.3001C62.0192 76.3001 59.9098 78.4095 59.9098 80.9993C59.9098 83.222 61.4645 85.0891 63.5465 85.5774V92.511C63.484 95.4602 61.0309 97.8626 58.0738 97.8626C55.7652 97.8626 53.8863 95.9837 53.8863 93.679V71.003C63.8082 69.1553 71.3473 60.441 71.3473 49.999C71.3473 39.557 63.8121 30.839 53.8863 28.995V6.31898C53.8863 4.06118 55.7222 2.18618 57.9801 2.13538H58.0856C61.0387 2.14319 63.484 4.53768 63.5426 7.48698L63.5386 14.4206C61.4566 14.905 59.9019 16.7722 59.9019 18.9987C59.9019 21.5925 62.0113 23.6979 64.605 23.6979C67.1987 23.6979 69.3081 21.5885 69.3081 18.9987C69.3081 16.776 67.7534 14.9089 65.6714 14.4206L65.6793 7.95178C69.9176 4.35408 76.8943 7.62756 77.4803 12.9596C77.5545 13.4869 78.0076 13.8775 78.5389 13.8775C83.2498 13.7799 87.0155 18.1236 86.1795 22.7252H76.9412C76.3513 22.7252 75.8709 23.2018 75.8709 23.7955V29.7447C73.7889 30.2291 72.2342 32.0963 72.2342 34.3228C72.2342 36.9166 74.3436 39.022 76.9373 39.022C79.531 39.022 81.6404 36.9126 81.6404 34.3228C81.6404 32.1001 80.0857 30.233 78.0037 29.7447V24.8619H86.9021C92.7576 25.9478 95.8748 34.6002 91.9841 39.1349C91.57 39.6349 91.7419 40.4513 92.3239 40.7404C95.3239 42.3146 97.4645 45.3693 97.8512 48.7248H89.359C88.8746 46.6467 87.0035 45.092 84.777 45.092C82.1832 45.092 80.0739 47.2014 80.0739 49.7912C80.0739 52.385 82.1833 54.4904 84.777 54.4904C87.0036 54.4904 88.8708 52.9357 89.359 50.8576H97.8863C97.605 54.3068 95.6092 57.4247 92.531 59.1435ZM76.941 67.8349C75.5269 67.8349 74.3746 66.6865 74.3746 65.2724C74.3746 63.8583 75.5269 62.7099 76.941 62.7099C78.3551 62.7099 79.5074 63.8583 79.5074 65.2724C79.5074 66.6865 78.3551 67.8349 76.941 67.8349ZM79.5074 34.3229C79.5074 35.737 78.3551 36.8854 76.941 36.8854C75.5269 36.8854 74.3746 35.737 74.3746 34.3229C74.3746 32.9088 75.5269 31.7604 76.941 31.7604C78.3551 31.7604 79.5074 32.9088 79.5074 34.3229ZM87.3512 49.7959C87.3512 51.21 86.1989 52.3584 84.7848 52.3584C83.3707 52.3584 82.2184 51.21 82.2184 49.7959C82.2184 48.3818 83.3707 47.2334 84.7848 47.2334C86.1989 47.2334 87.3512 48.3818 87.3512 49.7959Z" fill="black"/>
<path d="M54.629 58.055L47.9493 41.157C47.7891 40.7507 47.3946 40.4812 46.9532 40.4812C46.5157 40.4812 46.1212 40.7507 45.9571 41.157L39.2774 58.055C39.0587 58.6019 39.3282 59.223 39.879 59.4417C40.4298 59.6565 41.0509 59.3909 41.2657 58.8401L43.1993 53.9495H50.6993L52.6329 58.8401C53.2071 60.1448 55.1095 59.3792 54.629 58.055ZM44.051 51.8128L46.9572 44.4573L49.8634 51.8128H44.051Z" fill="black"/>
<path d="M59.648 59.516C59.0582 59.516 58.5777 59.0395 58.5777 58.4457V41.5477C58.5777 40.9579 59.0582 40.4774 59.648 40.4774C60.2378 40.4774 60.7183 40.954 60.7183 41.5477V58.4457C60.7144 59.0395 60.2378 59.516 59.648 59.516Z" fill="black"/>
</svg>
