<?xml version="1.0" encoding="UTF-8" standalone="no" ?>
<!DOCTYPE svg PUBLIC "-//W3C//DTD SVG 1.1//EN" "http://www.w3.org/Graphics/SVG/1.1/DTD/svg11.dtd">
<svg xmlns="http://www.w3.org/2000/svg" xmlns:xlink="http://www.w3.org/1999/xlink" version="1.1" width="1280" height="1024" viewBox="0 0 1280 1024" xml:space="preserve">
<desc>Created with Fabric.js 5.3.0</desc>
<defs>
</defs>
<g transform="matrix(1 0 0 1 640 512)" id="background-logo"  >
<rect style="stroke: none; stroke-width: 0; stroke-dasharray: none; stroke-linecap: butt; stroke-dashoffset: 0; stroke-linejoin: miter; stroke-miterlimit: 4; fill: rgb(255,255,255); fill-opacity: 0; fill-rule: nonzero; opacity: 1;"  paint-order="stroke"  x="-640" y="-512" rx="0" ry="0" width="1280" height="1024" />
</g>
<g transform="matrix(1.3366916583446453 0 0 1.3366916583446453 326.7358867411404 511.7727134839982)" id="logo-logo"  >
<g style=""  paint-order="stroke"   >
		<g transform="matrix(0.46380725810521906 0 0 0.46380725810521906 0 2.842171e-14)"  >
<path style="stroke: none; stroke-width: 1; stroke-dasharray: none; stroke-linecap: butt; stroke-dashoffset: 0; stroke-linejoin: miter; stroke-miterlimit: 4; fill: rgb(255,255,255); fill-rule: evenodd; opacity: 1;"  paint-order="stroke"  transform=" translate(-450.16936187108865, -396.78395745602376)" d="M 513.78 523.656 C 491.27299999999997 529.649 466.534 530.9399999999999 447.46899999999994 533.8839999999999 C 384.9989999999999 543.5299999999999 385.32699999999994 634.0299999999999 474.4939999999999 630.9909999999999 C 488.5319999999999 630.5119999999998 501.6359999999999 628.6779999999999 513.7789999999999 625.6639999999999 C 635.7379999999998 595.3939999999999 660.7909999999999 446.2399999999999 562.0609999999999 358.53999999999985 C 603.9939999999999 346.62699999999984 634.7199999999999 308.08399999999983 634.8009999999999 262.35199999999986 C 657.8789999999999 261.11399999999986 683.4699999999999 248.48199999999986 691.3389999999999 208.02199999999988 C 637.945 219.808 599.429 162 534.633 162 C 479.31100000000004 162 434.46200000000005 206.848 434.46200000000005 262.171 C 434.46200000000005 276.822 437.60800000000006 290.739 443.26200000000006 303.282 C 334.23300000000006 289.245 212.52900000000005 371.62199999999996 209.07700000000006 486.803 C 207.03000000000006 555.104 245.70900000000006 622.119 318.18100000000004 630.755 C 320.04100000000005 630.977 321.92500000000007 631.16 323.83000000000004 631.304 C 398.047 636.905 413.91400000000004 551.663 351.249 536.35 C 339.576 533.4970000000001 328.458 531.222 318.18100000000004 528.24 L 318.18100000000004 457.695 L 296.97800000000007 457.695 C 293.38400000000007 457.695 290.3190000000001 455.60699999999997 289.0040000000001 452.262 C 287.6890000000001 448.918 288.51000000000005 445.301 291.1400000000001 442.854 L 410.1420000000001 332.10299999999995 C 413.43900000000014 329.03499999999997 418.5200000000001 329.03499999999997 421.8170000000001 332.10299999999995 L 540.8200000000002 442.8539999999999 C 543.4510000000001 445.30099999999993 544.2710000000002 448.91799999999995 542.9560000000001 452.26199999999994 C 541.6420000000002 455.60699999999997 538.5760000000001 457.69499999999994 534.9820000000001 457.69499999999994 L 513.78 457.69499999999994 L 513.78 523.656 L 513.78 523.656 z M 420.573 408.774 C 437.85699999999997 411.043 451.313 425.929 451.313 443.806 L 451.313 455.15 L 420.573 455.15 L 420.573 408.774 L 420.573 408.774 z M 451.313 464.336 L 451.313 499.449 L 420.573 499.449 L 420.573 464.336 L 451.313 464.336 L 451.313 464.336 z M 411.389 499.449 L 380.648 499.449 L 380.648 464.336 L 411.389 464.336 L 411.389 499.449 L 411.389 499.449 z M 380.648 455.15 L 380.648 443.806 C 380.648 425.929 394.10400000000004 411.043 411.389 408.774 L 411.389 455.15 L 380.648 455.15 L 380.648 455.15 z M 477.657 281.237 C 477.21799999999996 277.964 479.514 274.952 482.788 274.51300000000003 C 486.062 274.07300000000004 489.07300000000004 276.37000000000006 489.51300000000003 279.644 C 491.23400000000004 292.322 501.28400000000005 302.814 513.5110000000001 308.865 C 528.7690000000001 316.415 547.4190000000001 317.389 563.7890000000001 310.40000000000003 C 566.8300000000002 309.10600000000005 570.3450000000001 310.52200000000005 571.6390000000001 313.56300000000005 C 572.9330000000001 316.60400000000004 571.5160000000001 320.11800000000005 568.4760000000001 321.41200000000003 C 548.8820000000001 329.77900000000005 526.5120000000002 328.65000000000003 508.2160000000001 319.59600000000006 C 492.404 311.771 479.965 298.057 477.657 281.237 L 477.657 281.237 z" stroke-linecap="round" />
</g>
</g>
</g>
<g transform="matrix(1.9211538461538462 0 0 1.9211538461538462 799.0110641823472 579.4820180238802)" id="text-logo"  >
<g style=""  paint-order="stroke"   >
		<g transform="matrix(1 0 0 1 0 0)" id="text-logo-path-0"  >
<path style="stroke: none; stroke-width: 0; stroke-dasharray: none; stroke-linecap: butt; stroke-dashoffset: 0; stroke-linejoin: miter; stroke-miterlimit: 4; fill: rgb(255,255,255); fill-rule: nonzero; opacity: 1;"  paint-order="stroke"  transform=" translate(-165.38, 16.625)" d="M 3.25 0 L 31.47 0 L 31.47 -8.42 L 13.62 -8.42 L 13.62 -42.91 L 3.25 -42.91 Z M 41.55 0 L 51.8 0 L 51.8 -32.18 L 41.55 -32.18 Z M 46.69 -35.93 C 49.6 -35.93 51.95 -38.13 51.95 -40.83 C 51.95 -43.54 49.6 -45.72 46.69 -45.72 C 43.79 -45.72 41.43 -43.54 41.43 -40.83 C 41.43 -38.13 43.79 -35.93 46.69 -35.93 Z M 91.11 -22.36 C 90.57 -28.72 85.35 -32.6 76.63 -32.6 C 67.92 -32.6 62.36 -28.81 62.41 -22.36 C 62.36 -17.41 65.53 -14.23 71.96 -13.03 L 77.57 -11.96 C 80.24 -11.44 81.45 -10.6 81.49 -9.18 C 81.45 -7.56 79.65 -6.5 77.03 -6.5 C 74.12 -6.5 72.15 -7.75 71.71 -10.1 L 61.59 -9.85 C 62.32 -3.48 67.79 0.61 76.99 0.61 C 85.6 0.61 91.86 -3.69 91.91 -10.31 C 91.86 -15 88.76 -17.79 82.35 -19.02 L 76.15 -20.2 C 73.43 -20.74 72.55 -21.71 72.57 -22.94 C 72.55 -24.58 74.45 -25.58 76.82 -25.58 C 79.52 -25.58 81.41 -24.14 81.7 -22.1 Z M 119.82 -32.18 L 114.02 -32.18 L 114.02 -39.89 L 103.77 -39.89 L 103.77 -32.18 L 99.52 -32.18 L 99.52 -24.64 L 103.77 -24.64 L 103.77 -8.99 C 103.71 -2.47 107.94 0.8 115.17 0.46 C 117.64 0.34 119.42 -0.17 120.41 -0.46 L 118.86 -7.86 C 118.42 -7.75 117.39 -7.54 116.61 -7.54 C 114.96 -7.54 114.02 -8.21 114.02 -10.12 L 114.02 -24.64 L 119.82 -24.64 Z M 129.78 0 L 140.02 0 L 140.02 -32.18 L 129.78 -32.18 Z M 134.91 -35.93 C 137.82 -35.93 140.17 -38.13 140.17 -40.83 C 140.17 -43.54 137.82 -45.72 134.91 -45.72 C 132.02 -45.72 129.65 -43.54 129.65 -40.83 C 129.65 -38.13 132.02 -35.93 134.91 -35.93 Z M 161.48 -18.35 C 161.5 -22.02 163.64 -24.2 166.89 -24.2 C 170.14 -24.2 172.06 -22.06 172.04 -18.5 L 172.04 0 L 182.29 0 L 182.29 -20.51 C 182.31 -27.76 177.89 -32.6 171.12 -32.6 C 166.36 -32.6 162.76 -30.19 161.34 -26.27 L 160.98 -26.27 L 160.98 -32.18 L 151.24 -32.18 L 151.24 0 L 161.48 0 Z M 208.38 12.47 C 218.08 12.47 224.7 8.05 224.7 0.13 L 224.7 -32.18 L 214.5 -32.18 L 214.5 -26.67 L 214.2 -26.67 C 212.97 -29.63 210.16 -32.6 205.09 -32.6 C 198.36 -32.6 192.27 -27.43 192.27 -16.13 C 192.27 -5.2 198.07 -0.44 205.13 -0.44 C 209.87 -0.44 213.03 -2.64 214.25 -5.62 L 214.6 -5.62 L 214.6 0.04 C 214.6 3.9 212.09 5.36 208.65 5.36 C 205.36 5.36 203.39 4.11 202.85 2.39 L 193.15 2.93 C 193.9 8.3 199.2 12.47 208.38 12.47 Z M 208.69 -7.9 C 204.9 -7.9 202.78 -10.98 202.78 -16.13 C 202.78 -21.27 204.88 -24.6 208.69 -24.6 C 212.44 -24.6 214.62 -21.35 214.62 -16.13 C 214.62 -10.96 212.42 -7.9 208.69 -7.9 Z M 235.94 0 L 246.31 0 L 246.31 -13.33 L 253.35 -13.33 C 263.17 -13.33 269.31 -19.15 269.31 -28.05 C 269.31 -36.88 263.3 -42.91 253.66 -42.91 L 235.94 -42.91 Z M 246.31 -21.5 L 246.31 -34.55 L 251.42 -34.55 C 256.07 -34.55 258.56 -32.04 258.56 -28.05 C 258.56 -24.09 256.07 -21.5 251.42 -21.5 Z M 287.06 0.54 C 291.55 0.54 294.65 -1.19 296.41 -4.48 L 296.66 -4.48 L 296.66 0 L 306.3 0 L 306.3 -21.87 C 306.3 -28.68 300.24 -32.6 292.05 -32.6 C 283.4 -32.6 278.5 -28.24 277.68 -22.38 L 287.13 -22.04 C 287.57 -24.09 289.26 -25.35 291.97 -25.35 C 294.48 -25.35 296.07 -24.14 296.07 -21.98 L 296.07 -21.87 C 296.07 -19.9 293.94 -19.49 288.45 -19 C 281.93 -18.46 276.48 -16.05 276.48 -8.93 C 276.48 -2.56 280.9 0.54 287.06 0.54 Z M 290.23 -6.16 C 287.86 -6.16 286.18 -7.29 286.18 -9.43 C 286.18 -11.5 287.82 -12.76 290.73 -13.2 C 292.64 -13.47 294.98 -13.89 296.14 -14.5 L 296.14 -11.44 C 296.14 -8.3 293.5 -6.16 290.23 -6.16 Z M 327.51 -42.91 L 317.26 -42.91 L 317.26 0 L 327.51 0 Z" stroke-linecap="round" />
</g>
</g>
</g>
</svg>